<mxfile host="Electron" agent="Mozilla/5.0 (X11; Linux x86_64) AppleWebKit/537.36 (KHTML, like Gecko) draw.io/27.0.9 Chrome/134.0.6998.205 Electron/35.7.2 Safari/537.36" version="27.0.9">
  <diagram name="第 1 页" id="XYDuTyh_IWoRPxczduGU">
    <mxGraphModel dx="1426" dy="848" grid="1" gridSize="10" guides="1" tooltips="1" connect="1" arrows="1" fold="1" page="1" pageScale="1" pageWidth="827" pageHeight="1169" math="0" shadow="0">
      <root>
        <mxCell id="0" />
        <mxCell id="1" parent="0" />
        <mxCell id="4064yST8u8mooSaQxoCG-40" value="" style="endArrow=none;html=1;rounded=0;" parent="1" edge="1">
          <mxGeometry width="50" height="50" relative="1" as="geometry">
            <mxPoint x="807.5" y="800.6896551724138" as="sourcePoint" />
            <mxPoint x="812.5" y="200" as="targetPoint" />
          </mxGeometry>
        </mxCell>
        <mxCell id="4064yST8u8mooSaQxoCG-64" value="" style="endArrow=none;html=1;rounded=0;" parent="1" edge="1">
          <mxGeometry width="50" height="50" relative="1" as="geometry">
            <mxPoint x="1167.5" y="800.6896551724138" as="sourcePoint" />
            <mxPoint x="1172.5" y="200" as="targetPoint" />
          </mxGeometry>
        </mxCell>
        <mxCell id="4064yST8u8mooSaQxoCG-39" value="" style="endArrow=none;html=1;rounded=0;" parent="1" edge="1">
          <mxGeometry width="50" height="50" relative="1" as="geometry">
            <mxPoint x="447.5" y="800.6896551724138" as="sourcePoint" />
            <mxPoint x="452.5" y="200" as="targetPoint" />
          </mxGeometry>
        </mxCell>
        <mxCell id="4064yST8u8mooSaQxoCG-5" style="edgeStyle=orthogonalEdgeStyle;rounded=0;orthogonalLoop=1;jettySize=auto;html=1;entryX=0;entryY=0.5;entryDx=0;entryDy=0;" parent="1" source="4064yST8u8mooSaQxoCG-1" target="4064yST8u8mooSaQxoCG-3" edge="1">
          <mxGeometry relative="1" as="geometry" />
        </mxCell>
        <mxCell id="4064yST8u8mooSaQxoCG-6" style="edgeStyle=orthogonalEdgeStyle;rounded=0;orthogonalLoop=1;jettySize=auto;html=1;entryX=0;entryY=0.5;entryDx=0;entryDy=0;" parent="1" source="4064yST8u8mooSaQxoCG-1" target="4064yST8u8mooSaQxoCG-2" edge="1">
          <mxGeometry relative="1" as="geometry" />
        </mxCell>
        <mxCell id="4064yST8u8mooSaQxoCG-7" style="edgeStyle=orthogonalEdgeStyle;rounded=0;orthogonalLoop=1;jettySize=auto;html=1;entryX=0;entryY=0.5;entryDx=0;entryDy=0;" parent="1" source="4064yST8u8mooSaQxoCG-1" target="4064yST8u8mooSaQxoCG-4" edge="1">
          <mxGeometry relative="1" as="geometry" />
        </mxCell>
        <mxCell id="4064yST8u8mooSaQxoCG-1" value="npc" style="rounded=0;whiteSpace=wrap;html=1;" parent="1" vertex="1">
          <mxGeometry x="220" y="400" width="120" height="60" as="geometry" />
        </mxCell>
        <mxCell id="4064yST8u8mooSaQxoCG-43" style="edgeStyle=orthogonalEdgeStyle;rounded=0;orthogonalLoop=1;jettySize=auto;html=1;entryX=0;entryY=0.5;entryDx=0;entryDy=0;" parent="1" source="4064yST8u8mooSaQxoCG-2" target="4064yST8u8mooSaQxoCG-9" edge="1">
          <mxGeometry relative="1" as="geometry" />
        </mxCell>
        <mxCell id="4064yST8u8mooSaQxoCG-2" value="icache_stage0to1" style="rounded=0;whiteSpace=wrap;html=1;" parent="1" vertex="1">
          <mxGeometry x="390" y="300" width="120" height="60" as="geometry" />
        </mxCell>
        <mxCell id="4064yST8u8mooSaQxoCG-12" style="edgeStyle=orthogonalEdgeStyle;rounded=0;orthogonalLoop=1;jettySize=auto;html=1;entryX=0;entryY=0.5;entryDx=0;entryDy=0;" parent="1" source="4064yST8u8mooSaQxoCG-3" target="4064yST8u8mooSaQxoCG-8" edge="1">
          <mxGeometry relative="1" as="geometry" />
        </mxCell>
        <mxCell id="4064yST8u8mooSaQxoCG-34" style="edgeStyle=orthogonalEdgeStyle;rounded=0;orthogonalLoop=1;jettySize=auto;html=1;entryX=0;entryY=0.25;entryDx=0;entryDy=0;" parent="1" source="4064yST8u8mooSaQxoCG-3" target="4064yST8u8mooSaQxoCG-23" edge="1">
          <mxGeometry relative="1" as="geometry">
            <Array as="points">
              <mxPoint x="540" y="430" />
              <mxPoint x="540" y="380" />
              <mxPoint x="710" y="380" />
              <mxPoint x="710" y="415" />
            </Array>
          </mxGeometry>
        </mxCell>
        <mxCell id="4064yST8u8mooSaQxoCG-42" style="edgeStyle=orthogonalEdgeStyle;rounded=0;orthogonalLoop=1;jettySize=auto;html=1;entryX=0;entryY=0.75;entryDx=0;entryDy=0;" parent="1" source="4064yST8u8mooSaQxoCG-3" target="4064yST8u8mooSaQxoCG-9" edge="1">
          <mxGeometry relative="1" as="geometry">
            <Array as="points">
              <mxPoint x="540" y="430" />
              <mxPoint x="540" y="345" />
            </Array>
          </mxGeometry>
        </mxCell>
        <mxCell id="4064yST8u8mooSaQxoCG-74" style="edgeStyle=orthogonalEdgeStyle;rounded=0;orthogonalLoop=1;jettySize=auto;html=1;entryX=0;entryY=0.5;entryDx=0;entryDy=0;" parent="1" source="4064yST8u8mooSaQxoCG-3" target="4064yST8u8mooSaQxoCG-72" edge="1">
          <mxGeometry relative="1" as="geometry">
            <Array as="points">
              <mxPoint x="540" y="430" />
              <mxPoint x="540" y="250" />
            </Array>
          </mxGeometry>
        </mxCell>
        <mxCell id="4064yST8u8mooSaQxoCG-3" value="stage0to1" style="rounded=0;whiteSpace=wrap;html=1;" parent="1" vertex="1">
          <mxGeometry x="390" y="400" width="120" height="60" as="geometry" />
        </mxCell>
        <mxCell id="4064yST8u8mooSaQxoCG-15" style="edgeStyle=orthogonalEdgeStyle;rounded=0;orthogonalLoop=1;jettySize=auto;html=1;entryX=0;entryY=0.5;entryDx=0;entryDy=0;" parent="1" source="4064yST8u8mooSaQxoCG-4" target="4064yST8u8mooSaQxoCG-10" edge="1">
          <mxGeometry relative="1" as="geometry" />
        </mxCell>
        <mxCell id="4064yST8u8mooSaQxoCG-16" style="edgeStyle=orthogonalEdgeStyle;rounded=0;orthogonalLoop=1;jettySize=auto;html=1;entryX=0;entryY=0.5;entryDx=0;entryDy=0;" parent="1" source="4064yST8u8mooSaQxoCG-4" target="4064yST8u8mooSaQxoCG-11" edge="1">
          <mxGeometry relative="1" as="geometry" />
        </mxCell>
        <mxCell id="4064yST8u8mooSaQxoCG-4" value="bpu_stage0to1" style="rounded=0;whiteSpace=wrap;html=1;" parent="1" vertex="1">
          <mxGeometry x="390" y="500" width="120" height="60" as="geometry" />
        </mxCell>
        <mxCell id="4064yST8u8mooSaQxoCG-30" style="edgeStyle=orthogonalEdgeStyle;rounded=0;orthogonalLoop=1;jettySize=auto;html=1;exitX=1;exitY=0.5;exitDx=0;exitDy=0;entryX=0;entryY=0.25;entryDx=0;entryDy=0;" parent="1" source="4064yST8u8mooSaQxoCG-8" target="4064yST8u8mooSaQxoCG-17" edge="1">
          <mxGeometry relative="1" as="geometry">
            <Array as="points">
              <mxPoint x="710" y="430" />
              <mxPoint x="710" y="515" />
            </Array>
          </mxGeometry>
        </mxCell>
        <mxCell id="4064yST8u8mooSaQxoCG-33" style="edgeStyle=orthogonalEdgeStyle;rounded=0;orthogonalLoop=1;jettySize=auto;html=1;entryX=0;entryY=0.75;entryDx=0;entryDy=0;" parent="1" source="4064yST8u8mooSaQxoCG-8" target="4064yST8u8mooSaQxoCG-23" edge="1">
          <mxGeometry relative="1" as="geometry">
            <Array as="points">
              <mxPoint x="710" y="430" />
              <mxPoint x="710" y="445" />
            </Array>
          </mxGeometry>
        </mxCell>
        <mxCell id="4064yST8u8mooSaQxoCG-8" value="faubtb" style="rounded=0;whiteSpace=wrap;html=1;" parent="1" vertex="1">
          <mxGeometry x="560" y="400" width="120" height="60" as="geometry" />
        </mxCell>
        <mxCell id="4064yST8u8mooSaQxoCG-19" style="edgeStyle=orthogonalEdgeStyle;rounded=0;orthogonalLoop=1;jettySize=auto;html=1;entryX=0;entryY=0.5;entryDx=0;entryDy=0;" parent="1" source="4064yST8u8mooSaQxoCG-9" target="4064yST8u8mooSaQxoCG-18" edge="1">
          <mxGeometry relative="1" as="geometry" />
        </mxCell>
        <mxCell id="4064yST8u8mooSaQxoCG-9" value="icache_stage1" style="rounded=0;whiteSpace=wrap;html=1;" parent="1" vertex="1">
          <mxGeometry x="560" y="300" width="120" height="60" as="geometry" />
        </mxCell>
        <mxCell id="4064yST8u8mooSaQxoCG-31" style="edgeStyle=orthogonalEdgeStyle;rounded=0;orthogonalLoop=1;jettySize=auto;html=1;entryX=0;entryY=0.5;entryDx=0;entryDy=0;" parent="1" source="4064yST8u8mooSaQxoCG-10" target="4064yST8u8mooSaQxoCG-17" edge="1">
          <mxGeometry relative="1" as="geometry" />
        </mxCell>
        <mxCell id="4064yST8u8mooSaQxoCG-10" value="btb" style="rounded=0;whiteSpace=wrap;html=1;" parent="1" vertex="1">
          <mxGeometry x="560" y="500" width="120" height="60" as="geometry" />
        </mxCell>
        <mxCell id="4064yST8u8mooSaQxoCG-29" style="edgeStyle=orthogonalEdgeStyle;rounded=0;orthogonalLoop=1;jettySize=auto;html=1;entryX=0;entryY=0.75;entryDx=0;entryDy=0;" parent="1" source="4064yST8u8mooSaQxoCG-11" target="4064yST8u8mooSaQxoCG-17" edge="1">
          <mxGeometry relative="1" as="geometry">
            <Array as="points">
              <mxPoint x="730" y="615" />
              <mxPoint x="730" y="545" />
            </Array>
          </mxGeometry>
        </mxCell>
        <mxCell id="4064yST8u8mooSaQxoCG-11" value="bim" style="rounded=0;whiteSpace=wrap;html=1;" parent="1" vertex="1">
          <mxGeometry x="560" y="585" width="120" height="60" as="geometry" />
        </mxCell>
        <mxCell id="4064yST8u8mooSaQxoCG-50" style="edgeStyle=orthogonalEdgeStyle;rounded=0;orthogonalLoop=1;jettySize=auto;html=1;entryX=0.5;entryY=1;entryDx=0;entryDy=0;" parent="1" source="4064yST8u8mooSaQxoCG-17" target="4064yST8u8mooSaQxoCG-45" edge="1">
          <mxGeometry relative="1" as="geometry" />
        </mxCell>
        <mxCell id="4064yST8u8mooSaQxoCG-17" value="bpu_stage1to2" style="rounded=0;whiteSpace=wrap;html=1;" parent="1" vertex="1">
          <mxGeometry x="750" y="500" width="120" height="60" as="geometry" />
        </mxCell>
        <mxCell id="4064yST8u8mooSaQxoCG-49" style="edgeStyle=orthogonalEdgeStyle;rounded=0;orthogonalLoop=1;jettySize=auto;html=1;entryX=0;entryY=0.25;entryDx=0;entryDy=0;" parent="1" source="4064yST8u8mooSaQxoCG-18" target="4064yST8u8mooSaQxoCG-45" edge="1">
          <mxGeometry relative="1" as="geometry" />
        </mxCell>
        <mxCell id="4064yST8u8mooSaQxoCG-18" value="icache_stage1to2" style="rounded=0;whiteSpace=wrap;html=1;" parent="1" vertex="1">
          <mxGeometry x="750" y="300" width="120" height="60" as="geometry" />
        </mxCell>
        <mxCell id="4064yST8u8mooSaQxoCG-48" style="edgeStyle=orthogonalEdgeStyle;rounded=0;orthogonalLoop=1;jettySize=auto;html=1;entryX=0;entryY=0.5;entryDx=0;entryDy=0;" parent="1" source="4064yST8u8mooSaQxoCG-23" target="4064yST8u8mooSaQxoCG-45" edge="1">
          <mxGeometry relative="1" as="geometry" />
        </mxCell>
        <mxCell id="4064yST8u8mooSaQxoCG-23" value="stage1to2" style="rounded=0;whiteSpace=wrap;html=1;" parent="1" vertex="1">
          <mxGeometry x="750" y="400" width="120" height="60" as="geometry" />
        </mxCell>
        <mxCell id="4064yST8u8mooSaQxoCG-32" style="edgeStyle=orthogonalEdgeStyle;rounded=0;orthogonalLoop=1;jettySize=auto;html=1;exitX=1;exitY=0.5;exitDx=0;exitDy=0;entryX=0.25;entryY=1;entryDx=0;entryDy=0;endArrow=classic;endFill=1;jumpStyle=arc;" parent="1" source="4064yST8u8mooSaQxoCG-8" target="4064yST8u8mooSaQxoCG-1" edge="1">
          <mxGeometry relative="1" as="geometry">
            <Array as="points">
              <mxPoint x="710" y="430" />
              <mxPoint x="710" y="670" />
              <mxPoint x="250" y="670" />
            </Array>
          </mxGeometry>
        </mxCell>
        <mxCell id="4064yST8u8mooSaQxoCG-35" value="Stage0" style="text;html=1;align=center;verticalAlign=middle;whiteSpace=wrap;rounded=0;" parent="1" vertex="1">
          <mxGeometry x="320" y="180" width="60" height="30" as="geometry" />
        </mxCell>
        <mxCell id="4064yST8u8mooSaQxoCG-36" value="Stage1" style="text;html=1;align=center;verticalAlign=middle;whiteSpace=wrap;rounded=0;" parent="1" vertex="1">
          <mxGeometry x="590" y="180" width="60" height="30" as="geometry" />
        </mxCell>
        <mxCell id="4064yST8u8mooSaQxoCG-37" value="Stage2" style="text;html=1;align=center;verticalAlign=middle;whiteSpace=wrap;rounded=0;" parent="1" vertex="1">
          <mxGeometry x="960" y="180" width="60" height="30" as="geometry" />
        </mxCell>
        <mxCell id="4064yST8u8mooSaQxoCG-53" style="edgeStyle=orthogonalEdgeStyle;rounded=0;orthogonalLoop=1;jettySize=auto;html=1;exitX=0.75;exitY=1;exitDx=0;exitDy=0;entryX=0.75;entryY=0;entryDx=0;entryDy=0;" parent="1" source="4064yST8u8mooSaQxoCG-44" target="4064yST8u8mooSaQxoCG-45" edge="1">
          <mxGeometry relative="1" as="geometry" />
        </mxCell>
        <mxCell id="4064yST8u8mooSaQxoCG-44" value="ras" style="rounded=0;whiteSpace=wrap;html=1;" parent="1" vertex="1">
          <mxGeometry x="920" y="300" width="120" height="60" as="geometry" />
        </mxCell>
        <mxCell id="4064yST8u8mooSaQxoCG-52" style="edgeStyle=orthogonalEdgeStyle;rounded=0;orthogonalLoop=1;jettySize=auto;html=1;exitX=0.25;exitY=0;exitDx=0;exitDy=0;entryX=0.25;entryY=1;entryDx=0;entryDy=0;" parent="1" source="4064yST8u8mooSaQxoCG-45" target="4064yST8u8mooSaQxoCG-44" edge="1">
          <mxGeometry relative="1" as="geometry" />
        </mxCell>
        <mxCell id="4064yST8u8mooSaQxoCG-62" style="edgeStyle=orthogonalEdgeStyle;rounded=0;orthogonalLoop=1;jettySize=auto;html=1;entryX=0;entryY=0.5;entryDx=0;entryDy=0;" parent="1" source="4064yST8u8mooSaQxoCG-45" target="4064yST8u8mooSaQxoCG-60" edge="1">
          <mxGeometry relative="1" as="geometry">
            <Array as="points">
              <mxPoint x="1070" y="430" />
              <mxPoint x="1070" y="330" />
            </Array>
          </mxGeometry>
        </mxCell>
        <mxCell id="4064yST8u8mooSaQxoCG-69" style="edgeStyle=orthogonalEdgeStyle;rounded=0;orthogonalLoop=1;jettySize=auto;html=1;entryX=0.75;entryY=1;entryDx=0;entryDy=0;jumpStyle=arc;" parent="1" source="4064yST8u8mooSaQxoCG-45" target="4064yST8u8mooSaQxoCG-1" edge="1">
          <mxGeometry relative="1" as="geometry">
            <Array as="points">
              <mxPoint x="1070" y="430" />
              <mxPoint x="1070" y="720" />
              <mxPoint x="310" y="720" />
            </Array>
          </mxGeometry>
        </mxCell>
        <mxCell id="4064yST8u8mooSaQxoCG-71" style="edgeStyle=orthogonalEdgeStyle;rounded=0;orthogonalLoop=1;jettySize=auto;html=1;entryX=0;entryY=0.5;entryDx=0;entryDy=0;" parent="1" source="4064yST8u8mooSaQxoCG-45" target="4064yST8u8mooSaQxoCG-59" edge="1">
          <mxGeometry relative="1" as="geometry" />
        </mxCell>
        <mxCell id="4064yST8u8mooSaQxoCG-45" value="pre_decode" style="rounded=0;whiteSpace=wrap;html=1;" parent="1" vertex="1">
          <mxGeometry x="920" y="400" width="120" height="60" as="geometry" />
        </mxCell>
        <mxCell id="4064yST8u8mooSaQxoCG-67" style="edgeStyle=orthogonalEdgeStyle;rounded=0;orthogonalLoop=1;jettySize=auto;html=1;" parent="1" source="4064yST8u8mooSaQxoCG-59" edge="1">
          <mxGeometry relative="1" as="geometry">
            <mxPoint x="1360" y="430" as="targetPoint" />
          </mxGeometry>
        </mxCell>
        <mxCell id="4064yST8u8mooSaQxoCG-70" style="edgeStyle=orthogonalEdgeStyle;rounded=0;orthogonalLoop=1;jettySize=auto;html=1;exitX=0;exitY=0.75;exitDx=0;exitDy=0;entryX=1;entryY=0.75;entryDx=0;entryDy=0;" parent="1" source="4064yST8u8mooSaQxoCG-59" target="4064yST8u8mooSaQxoCG-45" edge="1">
          <mxGeometry relative="1" as="geometry" />
        </mxCell>
        <mxCell id="4064yST8u8mooSaQxoCG-59" value="ftq" style="rounded=0;whiteSpace=wrap;html=1;" parent="1" vertex="1">
          <mxGeometry x="1110" y="400" width="120" height="60" as="geometry" />
        </mxCell>
        <mxCell id="4064yST8u8mooSaQxoCG-66" style="edgeStyle=orthogonalEdgeStyle;rounded=0;orthogonalLoop=1;jettySize=auto;html=1;" parent="1" source="4064yST8u8mooSaQxoCG-60" edge="1">
          <mxGeometry relative="1" as="geometry">
            <mxPoint x="1360" y="330" as="targetPoint" />
          </mxGeometry>
        </mxCell>
        <mxCell id="4064yST8u8mooSaQxoCG-60" value="fb" style="rounded=0;whiteSpace=wrap;html=1;" parent="1" vertex="1">
          <mxGeometry x="1110" y="300" width="120" height="60" as="geometry" />
        </mxCell>
        <mxCell id="4064yST8u8mooSaQxoCG-65" value="Stage3" style="text;html=1;align=center;verticalAlign=middle;whiteSpace=wrap;rounded=0;" parent="1" vertex="1">
          <mxGeometry x="1280" y="180" width="60" height="30" as="geometry" />
        </mxCell>
        <mxCell id="4064yST8u8mooSaQxoCG-75" style="edgeStyle=orthogonalEdgeStyle;rounded=0;orthogonalLoop=1;jettySize=auto;html=1;" parent="1" source="4064yST8u8mooSaQxoCG-72" target="4064yST8u8mooSaQxoCG-9" edge="1">
          <mxGeometry relative="1" as="geometry" />
        </mxCell>
        <mxCell id="4064yST8u8mooSaQxoCG-72" value="tlb" style="rounded=0;whiteSpace=wrap;html=1;" parent="1" vertex="1">
          <mxGeometry x="560" y="220" width="120" height="60" as="geometry" />
        </mxCell>
        <mxCell id="VdjzRKBrZQPASlXQ7igP-42" value="" style="endArrow=none;html=1;rounded=0;" parent="1" edge="1">
          <mxGeometry width="50" height="50" relative="1" as="geometry">
            <mxPoint x="807.5" y="1550.689655172414" as="sourcePoint" />
            <mxPoint x="812.5" y="950" as="targetPoint" />
          </mxGeometry>
        </mxCell>
        <mxCell id="VdjzRKBrZQPASlXQ7igP-43" value="" style="endArrow=none;html=1;rounded=0;" parent="1" edge="1">
          <mxGeometry width="50" height="50" relative="1" as="geometry">
            <mxPoint x="1167.5" y="1550.689655172414" as="sourcePoint" />
            <mxPoint x="1172.5" y="950" as="targetPoint" />
          </mxGeometry>
        </mxCell>
        <mxCell id="VdjzRKBrZQPASlXQ7igP-44" value="" style="endArrow=none;html=1;rounded=0;" parent="1" edge="1">
          <mxGeometry width="50" height="50" relative="1" as="geometry">
            <mxPoint x="447.5" y="1550.689655172414" as="sourcePoint" />
            <mxPoint x="452.5" y="950" as="targetPoint" />
          </mxGeometry>
        </mxCell>
        <mxCell id="VdjzRKBrZQPASlXQ7igP-45" style="edgeStyle=orthogonalEdgeStyle;rounded=0;orthogonalLoop=1;jettySize=auto;html=1;entryX=0;entryY=0.5;entryDx=0;entryDy=0;" parent="1" source="VdjzRKBrZQPASlXQ7igP-48" target="VdjzRKBrZQPASlXQ7igP-55" edge="1">
          <mxGeometry relative="1" as="geometry" />
        </mxCell>
        <mxCell id="VdjzRKBrZQPASlXQ7igP-46" style="edgeStyle=orthogonalEdgeStyle;rounded=0;orthogonalLoop=1;jettySize=auto;html=1;entryX=0;entryY=0.5;entryDx=0;entryDy=0;" parent="1" source="VdjzRKBrZQPASlXQ7igP-48" target="VdjzRKBrZQPASlXQ7igP-50" edge="1">
          <mxGeometry relative="1" as="geometry" />
        </mxCell>
        <mxCell id="VdjzRKBrZQPASlXQ7igP-47" style="edgeStyle=orthogonalEdgeStyle;rounded=0;orthogonalLoop=1;jettySize=auto;html=1;entryX=0;entryY=0.5;entryDx=0;entryDy=0;" parent="1" source="VdjzRKBrZQPASlXQ7igP-48" target="VdjzRKBrZQPASlXQ7igP-58" edge="1">
          <mxGeometry relative="1" as="geometry" />
        </mxCell>
        <mxCell id="VdjzRKBrZQPASlXQ7igP-48" value="npc" style="rounded=0;whiteSpace=wrap;html=1;" parent="1" vertex="1">
          <mxGeometry x="220" y="1150" width="120" height="60" as="geometry" />
        </mxCell>
        <mxCell id="VdjzRKBrZQPASlXQ7igP-49" style="edgeStyle=orthogonalEdgeStyle;rounded=0;orthogonalLoop=1;jettySize=auto;html=1;entryX=0;entryY=0.5;entryDx=0;entryDy=0;" parent="1" source="VdjzRKBrZQPASlXQ7igP-50" target="VdjzRKBrZQPASlXQ7igP-63" edge="1">
          <mxGeometry relative="1" as="geometry" />
        </mxCell>
        <mxCell id="VdjzRKBrZQPASlXQ7igP-50" value="icache_stage0to1" style="rounded=0;whiteSpace=wrap;html=1;" parent="1" vertex="1">
          <mxGeometry x="390" y="1050" width="120" height="60" as="geometry" />
        </mxCell>
        <mxCell id="VdjzRKBrZQPASlXQ7igP-53" style="edgeStyle=orthogonalEdgeStyle;rounded=0;orthogonalLoop=1;jettySize=auto;html=1;entryX=0;entryY=0.75;entryDx=0;entryDy=0;" parent="1" source="VdjzRKBrZQPASlXQ7igP-55" target="VdjzRKBrZQPASlXQ7igP-63" edge="1">
          <mxGeometry relative="1" as="geometry">
            <Array as="points">
              <mxPoint x="540" y="1180" />
              <mxPoint x="540" y="1095" />
            </Array>
          </mxGeometry>
        </mxCell>
        <mxCell id="VdjzRKBrZQPASlXQ7igP-54" style="edgeStyle=orthogonalEdgeStyle;rounded=0;orthogonalLoop=1;jettySize=auto;html=1;entryX=0;entryY=0.5;entryDx=0;entryDy=0;" parent="1" source="VdjzRKBrZQPASlXQ7igP-55" target="VdjzRKBrZQPASlXQ7igP-92" edge="1">
          <mxGeometry relative="1" as="geometry">
            <Array as="points">
              <mxPoint x="540" y="1180" />
              <mxPoint x="540" y="1000" />
            </Array>
          </mxGeometry>
        </mxCell>
        <mxCell id="VdjzRKBrZQPASlXQ7igP-93" style="edgeStyle=orthogonalEdgeStyle;rounded=0;orthogonalLoop=1;jettySize=auto;html=1;entryX=0;entryY=0.5;entryDx=0;entryDy=0;" parent="1" source="VdjzRKBrZQPASlXQ7igP-55" target="VdjzRKBrZQPASlXQ7igP-73" edge="1">
          <mxGeometry relative="1" as="geometry" />
        </mxCell>
        <mxCell id="fh-oJWUnpXk4HE-9gFqE-3" style="edgeStyle=orthogonalEdgeStyle;rounded=0;orthogonalLoop=1;jettySize=auto;html=1;entryX=0;entryY=0.5;entryDx=0;entryDy=0;" edge="1" parent="1" source="VdjzRKBrZQPASlXQ7igP-55" target="fh-oJWUnpXk4HE-9gFqE-1">
          <mxGeometry relative="1" as="geometry">
            <Array as="points">
              <mxPoint x="540" y="1180" />
              <mxPoint x="540" y="1238" />
            </Array>
          </mxGeometry>
        </mxCell>
        <mxCell id="VdjzRKBrZQPASlXQ7igP-55" value="stage0to1Reg" style="rounded=0;whiteSpace=wrap;html=1;" parent="1" vertex="1">
          <mxGeometry x="390" y="1150" width="120" height="60" as="geometry" />
        </mxCell>
        <mxCell id="fh-oJWUnpXk4HE-9gFqE-4" style="edgeStyle=orthogonalEdgeStyle;rounded=0;orthogonalLoop=1;jettySize=auto;html=1;entryX=0;entryY=0.5;entryDx=0;entryDy=0;" edge="1" parent="1" source="VdjzRKBrZQPASlXQ7igP-58" target="fh-oJWUnpXk4HE-9gFqE-1">
          <mxGeometry relative="1" as="geometry">
            <Array as="points">
              <mxPoint x="540" y="1280" />
              <mxPoint x="540" y="1238" />
            </Array>
          </mxGeometry>
        </mxCell>
        <mxCell id="fh-oJWUnpXk4HE-9gFqE-5" style="edgeStyle=orthogonalEdgeStyle;rounded=0;orthogonalLoop=1;jettySize=auto;html=1;entryX=0;entryY=0.5;entryDx=0;entryDy=0;" edge="1" parent="1" source="VdjzRKBrZQPASlXQ7igP-58" target="fh-oJWUnpXk4HE-9gFqE-2">
          <mxGeometry relative="1" as="geometry">
            <Array as="points">
              <mxPoint x="540" y="1280" />
              <mxPoint x="540" y="1323" />
            </Array>
          </mxGeometry>
        </mxCell>
        <mxCell id="VdjzRKBrZQPASlXQ7igP-58" value="bpu_stage0to1" style="rounded=0;whiteSpace=wrap;html=1;" parent="1" vertex="1">
          <mxGeometry x="390" y="1250" width="120" height="60" as="geometry" />
        </mxCell>
        <mxCell id="VdjzRKBrZQPASlXQ7igP-62" style="edgeStyle=orthogonalEdgeStyle;rounded=0;orthogonalLoop=1;jettySize=auto;html=1;entryX=0;entryY=0.5;entryDx=0;entryDy=0;" parent="1" source="VdjzRKBrZQPASlXQ7igP-63" target="VdjzRKBrZQPASlXQ7igP-71" edge="1">
          <mxGeometry relative="1" as="geometry" />
        </mxCell>
        <mxCell id="VdjzRKBrZQPASlXQ7igP-63" value="icache_stage1" style="rounded=0;whiteSpace=wrap;html=1;" parent="1" vertex="1">
          <mxGeometry x="560" y="1050" width="120" height="60" as="geometry" />
        </mxCell>
        <mxCell id="VdjzRKBrZQPASlXQ7igP-68" style="edgeStyle=orthogonalEdgeStyle;rounded=0;orthogonalLoop=1;jettySize=auto;html=1;entryX=0.5;entryY=1;entryDx=0;entryDy=0;" parent="1" source="VdjzRKBrZQPASlXQ7igP-69" target="VdjzRKBrZQPASlXQ7igP-84" edge="1">
          <mxGeometry relative="1" as="geometry" />
        </mxCell>
        <mxCell id="VdjzRKBrZQPASlXQ7igP-69" value="bpu_stage1to2" style="rounded=0;whiteSpace=wrap;html=1;" parent="1" vertex="1">
          <mxGeometry x="750" y="1250" width="120" height="60" as="geometry" />
        </mxCell>
        <mxCell id="VdjzRKBrZQPASlXQ7igP-70" style="edgeStyle=orthogonalEdgeStyle;rounded=0;orthogonalLoop=1;jettySize=auto;html=1;entryX=0;entryY=0.25;entryDx=0;entryDy=0;" parent="1" source="VdjzRKBrZQPASlXQ7igP-71" target="VdjzRKBrZQPASlXQ7igP-84" edge="1">
          <mxGeometry relative="1" as="geometry" />
        </mxCell>
        <mxCell id="VdjzRKBrZQPASlXQ7igP-71" value="icache_stage1to2" style="rounded=0;whiteSpace=wrap;html=1;" parent="1" vertex="1">
          <mxGeometry x="750" y="1050" width="120" height="60" as="geometry" />
        </mxCell>
        <mxCell id="VdjzRKBrZQPASlXQ7igP-72" style="edgeStyle=orthogonalEdgeStyle;rounded=0;orthogonalLoop=1;jettySize=auto;html=1;entryX=0;entryY=0.5;entryDx=0;entryDy=0;" parent="1" source="VdjzRKBrZQPASlXQ7igP-73" target="VdjzRKBrZQPASlXQ7igP-84" edge="1">
          <mxGeometry relative="1" as="geometry" />
        </mxCell>
        <mxCell id="VdjzRKBrZQPASlXQ7igP-73" value="stage0to1Reg" style="rounded=0;whiteSpace=wrap;html=1;" parent="1" vertex="1">
          <mxGeometry x="750" y="1150" width="120" height="60" as="geometry" />
        </mxCell>
        <mxCell id="VdjzRKBrZQPASlXQ7igP-75" value="Stage0" style="text;html=1;align=center;verticalAlign=middle;whiteSpace=wrap;rounded=0;" parent="1" vertex="1">
          <mxGeometry x="320" y="930" width="60" height="30" as="geometry" />
        </mxCell>
        <mxCell id="VdjzRKBrZQPASlXQ7igP-76" value="Stage1" style="text;html=1;align=center;verticalAlign=middle;whiteSpace=wrap;rounded=0;" parent="1" vertex="1">
          <mxGeometry x="590" y="930" width="60" height="30" as="geometry" />
        </mxCell>
        <mxCell id="VdjzRKBrZQPASlXQ7igP-77" value="Stage2" style="text;html=1;align=center;verticalAlign=middle;whiteSpace=wrap;rounded=0;" parent="1" vertex="1">
          <mxGeometry x="960" y="930" width="60" height="30" as="geometry" />
        </mxCell>
        <mxCell id="VdjzRKBrZQPASlXQ7igP-78" style="edgeStyle=orthogonalEdgeStyle;rounded=0;orthogonalLoop=1;jettySize=auto;html=1;exitX=0.75;exitY=1;exitDx=0;exitDy=0;entryX=0.75;entryY=0;entryDx=0;entryDy=0;" parent="1" source="VdjzRKBrZQPASlXQ7igP-79" target="VdjzRKBrZQPASlXQ7igP-84" edge="1">
          <mxGeometry relative="1" as="geometry" />
        </mxCell>
        <mxCell id="VdjzRKBrZQPASlXQ7igP-79" value="ras" style="rounded=0;whiteSpace=wrap;html=1;" parent="1" vertex="1">
          <mxGeometry x="920" y="1050" width="120" height="60" as="geometry" />
        </mxCell>
        <mxCell id="VdjzRKBrZQPASlXQ7igP-80" style="edgeStyle=orthogonalEdgeStyle;rounded=0;orthogonalLoop=1;jettySize=auto;html=1;exitX=0.25;exitY=0;exitDx=0;exitDy=0;entryX=0.25;entryY=1;entryDx=0;entryDy=0;" parent="1" source="VdjzRKBrZQPASlXQ7igP-84" target="VdjzRKBrZQPASlXQ7igP-79" edge="1">
          <mxGeometry relative="1" as="geometry" />
        </mxCell>
        <mxCell id="VdjzRKBrZQPASlXQ7igP-81" style="edgeStyle=orthogonalEdgeStyle;rounded=0;orthogonalLoop=1;jettySize=auto;html=1;entryX=0;entryY=0.5;entryDx=0;entryDy=0;" parent="1" source="VdjzRKBrZQPASlXQ7igP-84" target="VdjzRKBrZQPASlXQ7igP-89" edge="1">
          <mxGeometry relative="1" as="geometry">
            <Array as="points">
              <mxPoint x="1070" y="1180" />
              <mxPoint x="1070" y="1080" />
            </Array>
          </mxGeometry>
        </mxCell>
        <mxCell id="VdjzRKBrZQPASlXQ7igP-82" style="edgeStyle=orthogonalEdgeStyle;rounded=0;orthogonalLoop=1;jettySize=auto;html=1;entryX=0.75;entryY=1;entryDx=0;entryDy=0;jumpStyle=arc;" parent="1" source="VdjzRKBrZQPASlXQ7igP-84" target="VdjzRKBrZQPASlXQ7igP-48" edge="1">
          <mxGeometry relative="1" as="geometry">
            <Array as="points">
              <mxPoint x="1070" y="1180" />
              <mxPoint x="1070" y="1470" />
              <mxPoint x="310" y="1470" />
            </Array>
          </mxGeometry>
        </mxCell>
        <mxCell id="VdjzRKBrZQPASlXQ7igP-83" style="edgeStyle=orthogonalEdgeStyle;rounded=0;orthogonalLoop=1;jettySize=auto;html=1;entryX=0;entryY=0.5;entryDx=0;entryDy=0;" parent="1" source="VdjzRKBrZQPASlXQ7igP-84" target="VdjzRKBrZQPASlXQ7igP-87" edge="1">
          <mxGeometry relative="1" as="geometry" />
        </mxCell>
        <mxCell id="VdjzRKBrZQPASlXQ7igP-84" value="pre_decode" style="rounded=0;whiteSpace=wrap;html=1;" parent="1" vertex="1">
          <mxGeometry x="920" y="1150" width="120" height="60" as="geometry" />
        </mxCell>
        <mxCell id="VdjzRKBrZQPASlXQ7igP-85" style="edgeStyle=orthogonalEdgeStyle;rounded=0;orthogonalLoop=1;jettySize=auto;html=1;" parent="1" source="VdjzRKBrZQPASlXQ7igP-87" edge="1">
          <mxGeometry relative="1" as="geometry">
            <mxPoint x="1360" y="1180" as="targetPoint" />
          </mxGeometry>
        </mxCell>
        <mxCell id="VdjzRKBrZQPASlXQ7igP-86" style="edgeStyle=orthogonalEdgeStyle;rounded=0;orthogonalLoop=1;jettySize=auto;html=1;exitX=0;exitY=0.75;exitDx=0;exitDy=0;entryX=1;entryY=0.75;entryDx=0;entryDy=0;" parent="1" source="VdjzRKBrZQPASlXQ7igP-87" target="VdjzRKBrZQPASlXQ7igP-84" edge="1">
          <mxGeometry relative="1" as="geometry" />
        </mxCell>
        <mxCell id="VdjzRKBrZQPASlXQ7igP-87" value="ftq" style="rounded=0;whiteSpace=wrap;html=1;" parent="1" vertex="1">
          <mxGeometry x="1110" y="1150" width="120" height="60" as="geometry" />
        </mxCell>
        <mxCell id="VdjzRKBrZQPASlXQ7igP-88" style="edgeStyle=orthogonalEdgeStyle;rounded=0;orthogonalLoop=1;jettySize=auto;html=1;" parent="1" source="VdjzRKBrZQPASlXQ7igP-89" edge="1">
          <mxGeometry relative="1" as="geometry">
            <mxPoint x="1360" y="1080" as="targetPoint" />
          </mxGeometry>
        </mxCell>
        <mxCell id="VdjzRKBrZQPASlXQ7igP-89" value="fb" style="rounded=0;whiteSpace=wrap;html=1;" parent="1" vertex="1">
          <mxGeometry x="1110" y="1050" width="120" height="60" as="geometry" />
        </mxCell>
        <mxCell id="VdjzRKBrZQPASlXQ7igP-90" value="Stage3" style="text;html=1;align=center;verticalAlign=middle;whiteSpace=wrap;rounded=0;" parent="1" vertex="1">
          <mxGeometry x="1280" y="930" width="60" height="30" as="geometry" />
        </mxCell>
        <mxCell id="VdjzRKBrZQPASlXQ7igP-91" style="edgeStyle=orthogonalEdgeStyle;rounded=0;orthogonalLoop=1;jettySize=auto;html=1;" parent="1" source="VdjzRKBrZQPASlXQ7igP-92" target="VdjzRKBrZQPASlXQ7igP-63" edge="1">
          <mxGeometry relative="1" as="geometry" />
        </mxCell>
        <mxCell id="VdjzRKBrZQPASlXQ7igP-92" value="tlb" style="rounded=0;whiteSpace=wrap;html=1;" parent="1" vertex="1">
          <mxGeometry x="560" y="970" width="120" height="60" as="geometry" />
        </mxCell>
        <mxCell id="fh-oJWUnpXk4HE-9gFqE-6" style="edgeStyle=orthogonalEdgeStyle;rounded=0;orthogonalLoop=1;jettySize=auto;html=1;entryX=0;entryY=0.5;entryDx=0;entryDy=0;" edge="1" parent="1" source="fh-oJWUnpXk4HE-9gFqE-1" target="VdjzRKBrZQPASlXQ7igP-69">
          <mxGeometry relative="1" as="geometry">
            <Array as="points">
              <mxPoint x="710" y="1238" />
              <mxPoint x="710" y="1280" />
            </Array>
          </mxGeometry>
        </mxCell>
        <mxCell id="fh-oJWUnpXk4HE-9gFqE-8" style="edgeStyle=orthogonalEdgeStyle;rounded=0;orthogonalLoop=1;jettySize=auto;html=1;entryX=0.25;entryY=1;entryDx=0;entryDy=0;" edge="1" parent="1" source="fh-oJWUnpXk4HE-9gFqE-1" target="VdjzRKBrZQPASlXQ7igP-48">
          <mxGeometry relative="1" as="geometry">
            <Array as="points">
              <mxPoint x="710" y="1238" />
              <mxPoint x="710" y="1420" />
              <mxPoint x="250" y="1420" />
            </Array>
          </mxGeometry>
        </mxCell>
        <mxCell id="fh-oJWUnpXk4HE-9gFqE-1" value="btb" style="rounded=0;whiteSpace=wrap;html=1;" vertex="1" parent="1">
          <mxGeometry x="560" y="1207.5" width="120" height="60" as="geometry" />
        </mxCell>
        <mxCell id="fh-oJWUnpXk4HE-9gFqE-7" style="edgeStyle=orthogonalEdgeStyle;rounded=0;orthogonalLoop=1;jettySize=auto;html=1;entryX=0;entryY=0.5;entryDx=0;entryDy=0;" edge="1" parent="1" source="fh-oJWUnpXk4HE-9gFqE-2" target="VdjzRKBrZQPASlXQ7igP-69">
          <mxGeometry relative="1" as="geometry">
            <Array as="points">
              <mxPoint x="710" y="1323" />
              <mxPoint x="710" y="1280" />
            </Array>
          </mxGeometry>
        </mxCell>
        <mxCell id="fh-oJWUnpXk4HE-9gFqE-9" style="edgeStyle=orthogonalEdgeStyle;rounded=0;orthogonalLoop=1;jettySize=auto;html=1;entryX=0;entryY=0.5;entryDx=0;entryDy=0;" edge="1" parent="1" source="fh-oJWUnpXk4HE-9gFqE-2" target="VdjzRKBrZQPASlXQ7igP-73">
          <mxGeometry relative="1" as="geometry">
            <Array as="points">
              <mxPoint x="710" y="1323" />
              <mxPoint x="710" y="1180" />
            </Array>
          </mxGeometry>
        </mxCell>
        <mxCell id="fh-oJWUnpXk4HE-9gFqE-2" value="bim" style="rounded=0;whiteSpace=wrap;html=1;" vertex="1" parent="1">
          <mxGeometry x="560" y="1292.5" width="120" height="60" as="geometry" />
        </mxCell>
      </root>
    </mxGraphModel>
  </diagram>
</mxfile>
